<?xml version="1.0" encoding="UTF-8" ?>
<!DOCTYPE svg PUBLIC "-//W3C//DTD SVG 1.1//EN" "http://www.w3.org/Graphics/SVG/1.1/DTD/svg11.dtd">
<svg width="1217pt" height="1217pt" viewBox="0 0 1217 1217" version="1.1" xmlns="http://www.w3.org/2000/svg">
<g id="#ceb18fff">
<path fill="#ceb18f" opacity="1.00" d=" M 459.19 184.50 C 443.84 123.20 427.54 62.14 411.50 1.02 C 437.88 68.44 463.50 136.17 490.96 203.16 C 505.17 237.59 519.52 272.03 536.65 305.13 C 544.01 318.67 551.37 332.59 562.32 343.63 C 566.46 347.63 572.54 351.86 578.48 349.22 C 584.64 346.12 587.63 339.38 590.24 333.37 C 596.45 317.35 599.26 300.28 602.03 283.39 C 604.95 264.28 606.91 245.03 609.00 225.82 C 612.27 255.68 615.07 285.73 622.04 315.01 C 624.56 324.73 627.23 334.68 632.83 343.14 C 635.48 347.18 639.94 350.88 645.11 349.86 C 651.60 348.54 656.25 343.26 660.42 338.50 C 670.81 325.63 678.43 310.84 685.93 296.18 C 704.93 257.68 721.10 217.88 737.21 178.11 C 760.01 121.24 782.03 64.07 804.08 6.91 C 805.16 5.09 804.63 1.62 807.30 1.32 L 805.85 2.43 C 805.11 7.11 803.73 11.63 802.51 16.19 C 790.39 62.14 778.26 108.09 766.47 154.13 C 755.28 198.31 744.12 242.52 735.18 287.22 C 731.33 307.34 727.59 327.58 726.56 348.08 C 726.33 356.37 726.22 364.95 729.04 372.88 C 730.50 377.19 734.13 381.22 738.98 381.25 C 746.20 381.28 752.58 377.25 758.41 373.42 C 774.33 362.29 787.99 348.33 801.43 334.40 C 812.62 322.83 823.11 310.60 834.09 298.84 C 827.05 310.62 820.19 322.51 813.60 334.54 C 804.54 351.24 795.58 368.10 789.00 385.96 C 785.93 394.74 782.83 404.12 784.61 413.52 C 785.68 418.29 790.32 421.41 795.07 421.55 C 804.07 422.13 812.82 419.09 821.17 416.07 C 833.53 411.36 845.41 405.49 857.13 399.40 C 886.48 383.95 914.82 366.69 943.11 349.41 C 1004.57 311.46 1065.03 271.92 1125.89 233.05 C 1065.02 282.78 1003.78 332.10 944.03 383.18 C 921.23 402.95 898.48 422.83 877.21 444.25 C 866.54 455.32 855.70 466.55 847.98 479.95 C 845.21 485.25 842.13 491.88 845.11 497.73 C 848.36 503.14 855.13 504.48 860.90 505.36 C 873.60 506.74 886.40 505.48 899.04 503.98 C 920.24 501.19 941.22 496.99 962.11 492.50 C 965.79 491.78 969.38 490.44 973.18 490.52 C 964.04 493.97 955.20 498.17 946.29 502.17 C 931.92 508.66 917.64 515.38 903.83 523.00 C 893.97 528.44 884.17 534.21 875.53 541.48 C 870.97 545.70 865.64 550.40 865.03 556.99 C 864.56 562.95 869.83 567.11 874.51 569.71 C 883.82 574.85 894.28 577.33 904.56 579.72 C 933.36 585.83 962.70 588.67 991.95 591.59 C 1066.84 598.26 1141.94 602.22 1217.00 606.60 L 1217.00 610.36 C 1142.05 614.70 1067.06 618.63 992.28 625.37 C 963.11 628.12 933.88 631.09 905.17 637.10 C 893.92 639.74 882.31 642.33 872.38 648.50 C 867.80 651.26 863.62 656.40 865.35 662.08 C 867.71 669.40 874.14 674.43 879.98 679.01 C 898.23 692.33 918.85 701.89 939.16 711.59 C 950.46 716.73 961.73 721.94 973.25 726.58 C 964.32 725.38 955.62 722.76 946.74 721.22 C 929.90 717.90 913.03 714.64 895.98 712.61 C 883.36 711.34 870.52 710.03 857.92 712.11 C 852.13 713.14 845.03 715.86 844.01 722.49 C 843.29 729.41 847.16 735.79 850.67 741.46 C 860.30 755.79 872.55 768.11 884.80 780.19 C 913.95 808.48 944.99 834.71 976.02 860.88 C 1025.59 902.38 1075.86 943.02 1125.90 983.94 C 1061.27 942.55 997.01 900.55 931.55 860.47 C 912.42 848.79 893.15 837.35 873.59 826.42 C 856.14 816.89 838.55 807.41 819.87 800.45 C 811.61 797.52 802.90 794.54 794.01 795.56 C 789.38 795.97 785.24 799.47 784.46 804.11 C 782.96 813.91 786.33 823.54 789.60 832.63 C 796.25 850.15 805.07 866.74 814.01 883.18 C 820.51 894.95 827.18 906.62 834.12 918.14 C 813.85 896.04 794.16 873.22 771.41 853.57 C 763.82 847.24 755.97 840.85 746.70 837.17 C 742.16 835.37 736.22 834.71 732.48 838.48 C 727.86 843.43 727.20 850.61 726.62 857.03 C 725.87 873.07 728.24 889.04 730.66 904.85 C 737.93 947.81 748.36 990.15 758.79 1032.43 C 774.16 1093.75 790.47 1154.83 806.49 1215.99 C 775.46 1136.67 745.56 1056.89 712.28 978.47 C 700.76 951.90 689.17 925.28 674.87 900.06 C 668.94 890.02 662.86 879.75 654.08 871.92 C 650.22 868.44 644.72 865.57 639.50 867.75 C 634.21 870.29 631.32 875.81 628.91 880.88 C 623.92 892.22 621.29 904.41 618.89 916.51 C 614.18 941.16 611.71 966.16 609.00 991.09 C 605.92 962.88 603.17 934.55 597.09 906.79 C 594.63 896.36 592.01 885.76 586.76 876.33 C 584.36 872.31 581.12 867.87 576.16 867.12 C 569.70 866.25 564.51 871.07 560.35 875.33 C 551.51 884.93 545.09 896.43 538.80 907.79 C 526.52 930.75 515.99 954.60 505.69 978.51 C 478.86 1041.64 454.35 1105.71 429.50 1169.63 C 423.79 1184.79 417.55 1199.76 412.24 1215.07 C 411.77 1215.37 411.22 1215.48 410.70 1215.65 C 413.12 1214.71 412.27 1211.86 413.05 1209.94 C 425.39 1163.35 437.63 1116.73 449.66 1070.06 C 461.52 1023.50 473.34 976.90 482.79 929.78 C 486.61 910.01 490.21 890.12 491.38 869.98 C 491.68 861.56 491.83 852.88 489.20 844.77 C 487.85 840.59 484.80 836.41 480.14 835.83 C 472.98 835.16 466.54 839.13 460.71 842.77 C 450.67 849.47 441.68 857.62 433.00 865.97 C 419.44 879.10 406.60 892.95 394.02 907.01 C 390.60 910.66 387.58 914.67 383.92 918.09 C 393.49 902.09 402.69 885.86 411.41 869.38 C 418.23 856.15 424.92 842.77 429.80 828.68 C 432.46 820.82 434.85 812.48 433.52 804.12 C 432.77 799.89 429.26 796.42 425.01 795.75 C 417.70 794.45 410.32 796.45 403.37 798.62 C 387.44 803.92 372.40 811.51 357.56 819.28 C 321.03 838.87 285.80 860.73 250.63 882.63 C 197.91 915.60 145.82 949.57 93.42 983.04 L 92.30 984.29 C 92.67 982.27 95.01 981.71 96.31 980.42 C 149.05 937.48 201.87 894.63 253.91 850.85 C 280.31 828.34 306.75 805.82 331.66 781.65 C 343.62 769.94 355.54 758.03 365.33 744.40 C 369.24 738.70 373.11 732.60 374.05 725.63 C 374.73 720.95 371.82 716.31 367.54 714.49 C 358.65 710.40 348.59 711.08 339.07 711.17 C 314.56 712.50 290.45 717.42 266.44 722.20 C 259.19 723.47 252.12 725.73 244.81 726.57 C 263.58 718.84 281.99 710.25 300.21 701.29 C 315.05 693.58 330.12 685.84 342.99 675.02 C 347.33 670.94 352.33 666.35 352.95 660.08 C 353.47 654.91 349.39 650.91 345.40 648.37 C 337.73 643.57 328.91 641.12 320.24 638.84 C 294.24 632.53 267.58 629.71 241.04 626.77 C 160.85 619.15 80.40 614.95 0.00 610.31 L 0.00 606.65 C 42.01 604.30 84.01 601.79 126.01 599.18 C 172.78 596.01 219.57 592.83 266.13 587.34 C 284.16 585.00 302.23 582.53 319.91 578.19 C 329.39 575.69 339.17 573.08 347.24 567.27 C 351.10 564.58 354.09 559.87 352.67 555.02 C 350.77 548.49 345.27 543.92 340.30 539.66 C 326.52 529.05 310.96 521.06 295.47 513.30 C 278.75 505.32 261.98 497.36 244.77 490.51 C 246.22 490.58 247.71 490.60 249.14 490.93 C 260.72 493.73 272.44 495.94 284.12 498.30 C 307.19 502.38 330.51 506.94 354.05 505.70 C 360.76 504.90 368.94 504.01 372.87 497.74 C 375.61 491.67 372.77 484.86 369.74 479.46 C 361.75 465.87 350.64 454.49 339.75 443.21 C 312.35 415.87 282.83 390.77 253.39 365.68 C 200.14 320.83 146.01 277.05 92.08 233.03 C 121.21 251.51 150.07 270.41 179.16 288.95 C 228.91 320.76 278.65 352.64 329.76 382.25 C 349.79 393.62 369.94 404.93 391.20 413.85 C 400.14 417.48 409.37 420.92 419.07 421.65 C 423.46 421.83 428.59 421.21 431.44 417.46 C 434.90 412.79 433.95 406.52 433.32 401.14 C 430.15 385.81 423.30 371.57 416.50 357.58 C 406.45 337.58 395.37 318.11 383.94 298.87 C 395.06 310.82 405.72 323.22 417.08 334.95 C 430.35 348.70 443.87 362.41 459.56 373.42 C 465.69 377.40 472.50 381.78 480.14 381.16 C 484.76 380.54 487.81 376.43 489.18 372.27 C 491.70 364.48 491.69 356.17 491.42 348.07 C 490.74 333.96 488.68 319.97 486.31 306.07 C 479.03 265.17 469.17 224.80 459.19 184.50 M 557.07 443.08 C 505.58 458.88 463.20 500.34 444.84 550.80 C 439.25 566.29 435.99 582.57 434.93 598.97 C 434.78 605.96 434.98 612.96 434.92 619.95 C 435.40 635.44 439.34 650.62 444.77 665.10 C 455.79 692.69 472.98 717.96 495.22 737.73 C 519.27 759.58 549.73 774.70 582.01 779.11 C 602.82 781.99 624.21 782.44 644.88 778.32 C 670.48 773.39 694.42 761.66 715.45 746.42 C 723.59 740.09 732.26 734.40 739.87 727.42 C 738.89 727.56 737.98 727.87 737.14 728.36 C 716.14 740.59 692.05 746.85 667.97 749.02 C 634.98 751.81 600.82 746.33 571.44 730.67 C 555.35 721.80 540.94 709.87 529.30 695.67 C 510.49 673.12 497.98 644.66 497.10 615.10 C 496.90 599.03 498.63 582.84 503.59 567.51 C 510.68 544.62 523.87 523.68 541.14 507.11 C 560.64 488.64 585.04 475.56 611.01 468.84 C 641.27 463.44 673.52 460.59 702.95 471.46 C 716.43 476.15 728.15 484.43 739.76 492.52 C 736.63 490.24 734.43 486.97 731.35 484.64 C 720.79 476.34 710.14 468.04 698.45 461.37 C 685.15 453.51 670.91 447.21 656.01 443.11 C 636.23 437.53 615.54 436.05 595.07 436.76 C 582.17 436.75 569.34 439.13 557.07 443.08 Z" />
<path fill="#ceb18f" opacity="1.00" d=" M 472.95 131.91 C 561.28 106.62 656.71 106.63 745.04 131.90 C 740.35 143.69 735.68 155.47 731.02 167.27 C 651.69 145.23 566.31 145.22 486.97 167.27 C 482.31 155.47 477.64 143.69 472.95 131.91 Z" />
<path fill="#ceb18f" opacity="1.00" d=" M 218.92 302.79 C 275.23 230.40 352.38 174.60 438.43 142.97 C 441.77 155.22 444.81 167.56 447.88 179.88 C 371.01 208.72 302.20 258.70 251.10 322.96 C 240.31 316.33 229.73 309.37 218.92 302.79 Z" />
<path fill="#ceb18f" opacity="1.00" d=" M 770.12 179.87 C 773.20 167.56 776.23 155.22 779.57 142.97 C 865.63 174.59 942.72 230.42 999.09 302.77 C 988.31 309.40 977.67 316.27 966.94 322.97 C 915.78 258.74 847.00 208.73 770.12 179.87 Z" />
<path fill="#ceb18f" opacity="1.00" d=" M 197.43 332.03 C 207.44 339.76 216.90 348.23 226.81 356.10 C 198.93 398.46 177.88 445.35 165.37 494.51 C 157.54 524.97 152.90 556.26 151.52 587.68 C 138.88 588.41 126.22 589.08 113.61 590.29 C 116.54 498.60 146.14 408.06 197.43 332.03 Z" />
<path fill="#ceb18f" opacity="1.00" d=" M 991.19 356.11 C 1001.10 348.23 1010.55 339.74 1020.58 332.04 C 1046.41 370.58 1066.98 412.68 1081.14 456.88 C 1094.96 500.00 1102.88 545.03 1104.40 590.28 C 1091.77 589.05 1079.10 588.47 1066.45 587.65 C 1064.40 540.32 1054.87 493.31 1038.33 448.91 C 1026.27 416.28 1010.24 385.19 991.19 356.11 Z" />
<path fill="#ceb18f" opacity="1.00" d=" M 113.62 626.72 C 126.24 627.85 138.92 628.32 151.55 629.38 C 153.41 673.12 161.74 716.59 176.03 757.97 C 188.50 794.24 205.80 828.77 226.78 860.85 C 216.92 868.78 207.36 877.08 197.48 884.99 C 146.18 808.96 116.54 718.42 113.62 626.72 Z" />
<path fill="#ceb18f" opacity="1.00" d=" M 1066.45 629.37 C 1079.10 628.54 1091.75 627.41 1104.43 627.06 C 1101.28 718.65 1071.79 809.07 1020.49 885.00 C 1010.65 877.04 1001.04 868.79 991.21 860.83 C 1013.75 826.43 1031.96 789.16 1044.62 750.01 C 1057.27 711.02 1064.69 670.32 1066.45 629.37 Z" />
<path fill="#ceb18f" opacity="1.00" d=" M 218.99 914.10 C 229.76 907.53 240.31 900.61 251.06 894.00 C 302.26 958.19 371.00 1008.23 447.89 1037.06 C 444.83 1049.37 441.70 1061.68 438.50 1073.96 C 366.58 1047.57 300.93 1004.32 248.41 948.54 C 238.13 937.49 227.91 926.26 218.99 914.10 Z" />
<path fill="#ceb18f" opacity="1.00" d=" M 770.08 1037.10 C 846.95 1008.20 915.74 958.23 966.91 894.00 C 977.70 900.63 988.33 907.52 999.08 914.21 C 942.65 986.51 865.60 1042.46 779.46 1073.94 C 776.31 1061.67 773.18 1049.39 770.08 1037.10 Z" />
<path fill="#ceb18f" opacity="1.00" d=" M 473.09 1085.14 C 477.41 1073.23 482.41 1061.56 486.96 1049.74 C 566.35 1071.74 651.65 1071.71 731.04 1049.75 C 735.68 1061.56 740.42 1073.32 745.05 1085.14 C 656.71 1110.23 561.42 1110.33 473.09 1085.14 Z" />
</g>
</svg>
