<?xml version="1.0" encoding="UTF-8" ?>
<!DOCTYPE svg PUBLIC "-//W3C//DTD SVG 1.1//EN" "http://www.w3.org/Graphics/SVG/1.1/DTD/svg11.dtd">
<svg width="512pt" height="512pt" viewBox="0 0 512 512" version="1.1" xmlns="http://www.w3.org/2000/svg">
<g id="#72747aff">
<path fill="#72747a" opacity="1.00" d=" M 253.36 0.00 L 257.71 0.00 C 278.75 0.77 299.91 5.96 317.85 17.28 C 336.73 29.24 350.84 48.15 357.93 69.27 C 364.09 86.51 365.49 104.94 366.26 123.09 C 366.75 137.46 365.79 151.86 364.07 166.13 C 360.39 191.80 352.50 217.69 336.39 238.40 C 324.23 254.41 306.77 266.25 287.40 271.59 C 265.10 277.67 240.92 277.28 218.97 269.92 C 198.99 263.23 181.89 249.19 170.49 231.57 C 157.44 211.73 150.79 188.39 147.60 165.05 C 145.35 146.44 144.63 127.60 146.38 108.91 C 147.53 88.58 152.21 68.13 162.39 50.35 C 170.64 36.47 182.02 24.33 195.93 16.02 C 213.10 5.39 233.33 0.74 253.36 0.00 M 242.41 29.67 C 223.71 31.83 205.31 40.47 193.53 55.44 C 183.03 68.29 177.89 84.64 175.72 100.88 C 174.18 115.84 173.16 130.92 174.39 145.95 C 175.76 166.61 179.36 187.56 188.69 206.24 C 195.41 219.72 205.56 231.97 219.09 238.98 C 234.93 247.17 253.52 248.64 270.95 246.02 C 287.07 243.62 302.40 235.38 312.57 222.53 C 326.05 206.03 332.63 184.95 335.43 164.10 C 338.88 142.90 338.28 121.25 335.85 99.97 C 334.89 93.89 333.76 87.81 331.87 81.94 C 326.80 64.73 315.71 48.99 299.96 40.02 C 282.71 30.16 261.95 27.25 242.41 29.67 Z" />
<path fill="#72747a" opacity="1.00" d=" M 171.82 279.85 C 175.71 277.16 180.05 274.28 185.03 274.98 C 193.61 275.52 200.09 284.91 197.41 293.13 C 196.04 298.65 190.91 301.69 186.42 304.49 C 163.13 319.22 138.15 331.34 112.00 340.07 C 104.55 342.56 96.67 343.97 89.63 347.58 C 81.10 351.96 75.32 360.30 72.09 369.13 C 67.89 380.93 67.30 393.59 66.85 405.99 C 66.88 417.32 67.05 428.71 69.03 439.90 C 104.70 459.12 144.06 470.78 183.87 477.62 C 236.52 486.12 290.68 485.31 343.02 475.01 C 377.62 467.67 411.86 457.07 442.98 439.99 C 445.53 423.87 445.63 407.41 444.31 391.17 C 443.14 377.36 439.80 362.55 429.39 352.65 C 421.38 345.02 410.05 343.51 399.97 340.16 C 372.65 331.03 346.54 318.31 322.43 302.55 C 319.14 300.52 316.05 297.78 314.85 293.99 C 312.62 288.04 315.06 280.84 320.41 277.41 C 324.91 274.34 331.17 274.22 335.78 277.14 C 362.22 294.24 390.83 308.37 421.29 316.68 C 435.44 320.59 448.58 328.85 457.15 340.91 C 468.63 356.81 472.23 376.85 473.29 396.03 C 474.21 411.88 473.68 427.82 471.39 443.53 C 470.60 447.76 469.79 452.08 467.87 455.98 C 465.90 459.90 461.91 462.15 458.23 464.23 C 433.79 477.81 407.48 487.81 380.61 495.41 C 341.28 506.43 300.44 511.45 259.65 512.00 L 253.28 512.00 C 204.32 511.50 155.25 504.23 108.84 488.39 C 88.41 480.97 68.06 472.87 49.50 461.45 C 43.54 457.80 42.21 450.45 40.88 444.16 C 38.19 427.28 37.71 410.09 38.89 393.05 C 39.56 383.26 40.88 373.44 43.85 364.06 C 48.38 347.06 59.39 331.46 75.02 323.01 C 83.47 318.16 93.03 316.00 102.25 313.18 C 126.78 305.18 150.04 293.61 171.82 279.85 Z" />
</g>
</svg>
