<?xml version="1.0" encoding="UTF-8" ?>
<!DOCTYPE svg PUBLIC "-//W3C//DTD SVG 1.1//EN" "http://www.w3.org/Graphics/SVG/1.1/DTD/svg11.dtd">
<svg width="512pt" height="512pt" viewBox="0 0 512 512" version="1.1" xmlns="http://www.w3.org/2000/svg">
<g id="#72747aff">
<path fill="#72747a" opacity="1.00" d=" M 452.21 101.21 C 457.66 94.97 468.02 94.27 474.26 99.74 C 481.15 105.18 481.91 116.42 475.82 122.75 C 384.73 219.33 293.49 315.78 202.39 412.35 C 195.74 418.27 184.50 416.96 179.16 409.90 C 131.97 362.42 84.51 315.19 37.20 267.82 C 33.17 264.09 31.17 258.28 32.32 252.87 C 33.50 246.55 38.84 241.33 45.17 240.26 C 50.49 239.23 56.13 241.25 59.81 245.18 C 103.77 289.13 147.73 333.08 191.68 377.05 C 278.53 285.11 365.36 193.15 452.21 101.21 Z" />
</g>
</svg>
