<?xml version="1.0" encoding="UTF-8" ?>
<!DOCTYPE svg PUBLIC "-//W3C//DTD SVG 1.1//EN" "http://www.w3.org/Graphics/SVG/1.1/DTD/svg11.dtd">
<svg width="512pt" height="512pt" viewBox="0 0 512 512" version="1.1" xmlns="http://www.w3.org/2000/svg">
<g id="#72747aff">
<path fill="#72747a" opacity="1.00" d=" M 22.67 75.68 C 34.08 66.04 49.04 60.95 63.95 61.19 C 192.30 61.19 320.65 61.17 448.99 61.20 C 466.44 61.02 483.74 68.57 495.49 81.48 C 505.58 92.34 511.37 106.89 512.00 121.67 L 512.00 389.51 C 511.63 402.90 507.00 416.14 498.70 426.68 C 487.05 441.81 468.19 450.97 449.09 450.79 C 320.72 450.84 192.35 450.80 63.97 450.81 C 49.30 451.04 34.56 446.14 23.21 436.77 C 9.03 425.42 0.39 407.65 0.00 389.51 L 0.00 121.76 C 0.64 104.11 8.98 86.88 22.67 75.68 M 55.56 90.72 C 40.24 93.75 28.41 108.39 28.64 124.01 C 28.52 210.66 28.64 297.32 28.58 383.98 C 28.56 389.35 28.81 394.87 30.80 399.93 C 34.89 411.44 45.74 420.18 57.85 421.77 C 62.55 422.38 67.29 422.21 72.02 422.22 C 197.03 422.22 322.05 422.21 447.06 422.22 C 453.57 422.30 460.20 421.14 465.90 417.87 C 476.62 412.09 483.58 400.15 483.40 387.98 C 483.41 302.66 483.40 217.33 483.41 132.01 C 483.41 125.62 483.69 119.01 481.46 112.90 C 477.84 102.05 468.29 93.45 457.15 90.89 C 450.20 89.35 443.04 90.02 435.98 89.88 C 312.33 89.88 188.68 89.88 65.03 89.87 C 61.86 89.91 58.67 90.12 55.56 90.72 Z" />
<path fill="#72747a" opacity="1.00" d=" M 63.45 119.50 C 68.72 114.04 78.19 114.16 83.49 119.53 C 141.05 171.04 198.66 222.51 256.15 274.10 C 311.61 224.59 366.82 174.80 422.19 125.19 C 426.89 121.21 431.26 115.54 438.01 115.52 C 446.29 114.95 453.77 122.78 452.73 131.03 C 452.50 135.85 449.25 139.73 445.67 142.63 C 404.73 179.30 363.82 216.02 322.91 252.72 C 364.69 292.40 406.50 332.05 448.26 371.74 C 452.48 375.52 454.22 381.84 452.26 387.20 C 450.13 393.66 442.84 398.05 436.14 396.34 C 431.43 395.86 428.19 392.16 424.97 389.11 C 383.83 350.04 342.73 310.94 301.56 271.91 C 289.69 282.58 277.81 293.24 265.89 303.86 C 260.62 308.73 251.60 308.61 246.45 303.63 C 234.98 293.42 223.56 283.16 212.10 272.94 C 169.69 312.59 127.31 352.26 84.92 391.93 C 82.72 394.02 80.07 395.77 76.99 396.13 C 69.91 397.95 62.21 392.94 60.45 385.96 C 58.90 380.63 60.96 374.74 65.09 371.15 C 106.92 332.00 148.73 292.82 190.58 253.69 C 148.36 215.80 105.95 178.11 63.73 140.22 C 57.73 135.03 57.61 124.85 63.45 119.50 Z" />
</g>
</svg>
