<svg xmlns="http://www.w3.org/2000/svg" viewBox="0 0 3333 3333" shape-rendering="geometricPrecision" text-rendering="geometricPrecision" image-rendering="optimizeQuality" fill-rule="evenodd" clip-rule="evenodd"><path fill="#272a41" d="M2547 1307s-18-124-72-178c-68-72-145-72-180-76-251-18-629-18-629-18h-1s-377 0-629 18c-35 4-112 5-180 76-54 54-71 178-71 178s-18 145-18 291v136c0 145 18 291 18 291s18 124 71 178c68 72 158 69 198 77 144 14 611 18 611 18s378-1 629-19c35-4 112-5 180-76 54-54 72-178 72-178s18-145 18-291v-136c0-145-18-291-18-291zM1667 0c460 0 877 187 1179 488 302 302 488 718 488 1179 0 460-187 877-488 1179-302 302-718 488-1179 488-460 0-877-187-1179-488C186 2544 0 2128 0 1667c0-460 187-877 488-1179C790 186 1206 0 1667 0zm1093 573c-280-280-666-453-1093-453S853 293 574 573c-280 280-453 666-453 1093s173 814 453 1093c280 280 666 453 1093 453s814-173 1093-453c280-280 453-666 453-1093s-173-814-453-1093zM1480 1900v-505l486 253-486 252z"/></svg>
