<?xml version="1.0" encoding="UTF-8" ?>
<!DOCTYPE svg PUBLIC "-//W3C//DTD SVG 1.1//EN" "http://www.w3.org/Graphics/SVG/1.1/DTD/svg11.dtd">
<svg width="88pt" height="88pt" viewBox="0 0 88 88" version="1.1" xmlns="http://www.w3.org/2000/svg">
<g id="#212640ff">
<path fill="#212640" opacity="1.00" d=" M 40.99 0.00 L 46.45 0.00 C 59.27 0.81 71.64 7.33 79.27 17.70 C 84.38 24.42 87.22 32.65 88.00 41.01 L 88.00 46.27 C 87.27 58.42 81.50 70.22 72.01 77.90 C 65.00 83.80 56.08 87.17 47.00 88.00 L 41.32 88.00 C 28.34 87.08 15.83 80.36 8.30 69.69 C 3.37 63.08 0.81 55.01 0.00 46.87 L 0.00 41.28 C 0.72 32.33 3.95 23.54 9.63 16.54 C 17.18 6.96 28.87 1.01 40.99 0.00 M 38.50 4.63 C 27.41 6.19 17.10 12.61 10.95 21.99 C 3.91 32.27 2.35 45.97 6.66 57.63 C 12.21 73.31 28.36 84.42 45.02 83.71 C 57.99 83.50 70.55 76.38 77.45 65.42 C 83.18 56.63 85.09 45.49 82.75 35.28 C 80.30 24.00 72.56 14.02 62.30 8.75 C 55.05 4.93 46.61 3.53 38.50 4.63 Z" />
<path fill="#212640" opacity="1.00" d=" M 26.09 25.03 C 30.99 21.11 37.83 22.38 43.67 22.06 C 43.04 27.71 44.31 34.47 39.97 38.93 C 35.51 43.29 28.68 42.08 23.00 42.61 C 23.46 36.77 22.10 29.91 26.09 25.03 Z" />
<path fill="#212640" opacity="1.00" d=" M 44.36 22.06 C 50.20 22.38 57.04 21.11 61.95 25.02 C 65.96 29.91 64.55 36.78 65.00 42.62 C 59.34 42.07 52.56 43.28 48.09 38.96 C 43.74 34.49 45.00 27.72 44.36 22.06 Z" />
<path fill="#212640" opacity="1.00" d=" M 23.00 43.40 C 28.66 43.94 35.43 42.74 39.91 47.03 C 44.31 51.47 43.04 58.26 43.67 63.92 C 37.84 63.61 30.97 64.93 26.07 60.97 C 22.11 56.08 23.46 49.23 23.00 43.40 Z" />
<path fill="#212640" opacity="1.00" d=" M 48.06 47.10 C 52.52 42.74 59.33 43.94 65.00 43.40 C 64.55 49.23 65.96 56.10 61.96 60.99 C 57.06 64.94 50.19 63.60 44.35 63.92 C 45.00 58.29 43.75 51.55 48.06 47.10 Z" />
</g>
</svg>
